<svg xmlns:xlink="http://www.w3.org/1999/xlink" fill="none" width="165" xmlns="http://www.w3.org/2000/svg" style="-webkit-print-color-adjust:exact" id="screenshot-0b951858-edbe-807a-8002-20525df587c5" version="1.1" viewBox="857.5 182.5 165 165" height="165"><g id="shape-0b951858-edbe-807a-8002-20525df587c5" rx="0" ry="0"><g id="shape-0b951858-edbe-807a-8002-20515a79eb99"><g class="fills" id="fills-0b951858-edbe-807a-8002-20515a79eb99"><path d="M870,185 h55 a10,10 0 0 1 10,10 v65 a0,0 0 0 1 0,0 h-65 a10,10 0 0 1 -10,-10 v-55 a10,10 0 0 1 10,-10 z" x="860" y="185" transform="matrix(1.000000, 0.000000, 0.000000, 1.000000, 0.000000, 0.000000)" width="75" height="75"></path></g><g id="strokes-0b951858-edbe-807a-8002-20515a79eb99" class="strokes"><g class="stroke-shape"><path d="M870,185 h55 a10,10 0 0 1 10,10 v65 a0,0 0 0 1 0,0 h-65 a10,10 0 0 1 -10,-10 v-55 a10,10 0 0 1 10,-10 z" style="fill:none;fill-opacity:none;stroke-width:7;stroke:#ffffff;stroke-opacity:1;stroke-dasharray:" x="860" y="185" transform="matrix(1.000000, 0.000000, 0.000000, 1.000000, 0.000000, 0.000000)" width="75" height="75"></path></g></g></g><g id="shape-0b951858-edbe-807a-8002-205208a7d63b"><g class="fills" id="fills-0b951858-edbe-807a-8002-205208a7d63b"><path d="M870.0000000000001,270 h55 a10,10 0 0 1 10,10 v65 a0,0 0 0 1 0,0 h-65 a10,10 0 0 1 -10,-10 v-55 a10,10 0 0 1 10,-10 z" x="860.0000000000001" y="270" transform="matrix(1.000000, -0.000000, 0.000000, -1.000000, -0.000000, 615.000000)" width="75" height="75"></path></g><g id="strokes-0b951858-edbe-807a-8002-205208a7d63b" class="strokes"><g class="stroke-shape"><path d="M870.0000000000001,270 h55 a10,10 0 0 1 10,10 v65 a0,0 0 0 1 0,0 h-65 a10,10 0 0 1 -10,-10 v-55 a10,10 0 0 1 10,-10 z" style="fill:none;fill-opacity:none;stroke-width:7;stroke:#ffffff;stroke-opacity:1;stroke-dasharray:" x="860.0000000000001" y="270" transform="matrix(1.000000, -0.000000, 0.000000, -1.000000, -0.000000, 615.000000)" width="75" height="75"></path></g></g></g><g id="shape-0b951858-edbe-807a-8002-205208a7d63c"><g class="fills" id="fills-0b951858-edbe-807a-8002-205208a7d63c"><path d="M955,270.00000000000006 h55.000000000000114 a10,10 0 0 1 10,10 v55 a10,10 0 0 1 -10,10 h-65.00000000000011 a0,0 0 0 1 0,0 v-65 a10,10 0 0 1 10,-10 z" x="945" y="270.00000000000006" transform="matrix(1.000000, 0.000000, -0.000000, -1.000000, -0.000000, 615.000000)" width="75.00000000000011" height="75"></path></g><g id="strokes-0b951858-edbe-807a-8002-205208a7d63c" class="strokes"><g class="stroke-shape"><path d="M955,270.00000000000006 h55.000000000000114 a10,10 0 0 1 10,10 v55 a10,10 0 0 1 -10,10 h-65.00000000000011 a0,0 0 0 1 0,0 v-65 a10,10 0 0 1 10,-10 z" style="fill:none;fill-opacity:none;stroke-width:7;stroke:#ffffff;stroke-opacity:1;stroke-dasharray:" x="945" y="270.00000000000006" transform="matrix(1.000000, 0.000000, -0.000000, -1.000000, -0.000000, 615.000000)" width="75.00000000000011" height="75"></path></g></g></g><g id="shape-0b951858-edbe-807a-8002-2051bf48cfdf"><g class="fills" id="fills-0b951858-edbe-807a-8002-2051bf48cfdf"><path d="M955,185 h54.999999999999886 a10,10 0 0 1 10,10 v55 a10,10 0 0 1 -10,10 h-64.99999999999989 a0,0 0 0 1 0,0 v-65 a10,10 0 0 1 10,-10 z" x="945" y="185" transform="matrix(1.000000, 0.000000, 0.000000, 1.000000, 0.000000, 0.000000)" width="74.99999999999989" height="75"></path></g><g id="strokes-0b951858-edbe-807a-8002-2051bf48cfdf" class="strokes"><g class="stroke-shape"><path d="M955,185 h54.999999999999886 a10,10 0 0 1 10,10 v55 a10,10 0 0 1 -10,10 h-64.99999999999989 a0,0 0 0 1 0,0 v-65 a10,10 0 0 1 10,-10 z" style="fill:none;fill-opacity:none;stroke-width:7;stroke:#ffffff;stroke-opacity:1;stroke-dasharray:" x="945" y="185" transform="matrix(1.000000, 0.000000, 0.000000, 1.000000, 0.000000, 0.000000)" width="74.99999999999989" height="75"></path></g></g></g></g></svg>