<svg xmlns:xlink="http://www.w3.org/1999/xlink" fill="none" width="165" xmlns="http://www.w3.org/2000/svg" style="-webkit-print-color-adjust:exact" id="screenshot-0b951858-edbe-807a-8002-20561d692626" version="1.1" viewBox="1085.5 182.5 165 165" height="165"><g id="shape-0b951858-edbe-807a-8002-20561d692626" rx="0" ry="0"><g id="shape-0b951858-edbe-807a-8002-20529af8989f"><g class="fills" id="fills-0b951858-edbe-807a-8002-20529af8989f"><path d="M1098,185.00000000000009 h140 a10,10 0 0 1 10,10 v139.99999999999997 a10,10 0 0 1 -10,10 h-150 a0,0 0 0 1 0,0 v-149.99999999999997 a10,10 0 0 1 10,-10 z" x="1088" y="185.00000000000009" transform="matrix(1.000000, 0.000000, 0.000000, 1.000000, 0.000000, 0.000000)" width="160" height="159.99999999999997"></path></g><g id="strokes-0b951858-edbe-807a-8002-20529af8989f" class="strokes"><g class="stroke-shape"><path d="M1098,185.00000000000009 h140 a10,10 0 0 1 10,10 v139.99999999999997 a10,10 0 0 1 -10,10 h-150 a0,0 0 0 1 0,0 v-149.99999999999997 a10,10 0 0 1 10,-10 z" style="fill:none;fill-opacity:none;stroke-width:7;stroke:#ffffff;stroke-opacity:1;stroke-dasharray:" x="1088" y="185.00000000000009" transform="matrix(1.000000, 0.000000, 0.000000, 1.000000, 0.000000, 0.000000)" width="160" height="159.99999999999997"></path></g></g></g><g id="shape-0b951858-edbe-807a-8002-2052bf89f01e"><g class="fills" id="fills-0b951858-edbe-807a-8002-2052bf89f01e"><path d="M1118,205.00000000000006 h100 a10,10 0 0 1 10,10 v100 a10,10 0 0 1 -10,10 h-110 a0,0 0 0 1 0,0 v-110 a10,10 0 0 1 10,-10 z" x="1108" y="205.00000000000006" transform="matrix(-0.000000, 1.000000, -1.000000, 0.000000, 1433.000000, -903.000000)" width="120" height="120"></path></g><g id="strokes-0b951858-edbe-807a-8002-2052bf89f01e" class="strokes"><g class="stroke-shape"><path d="M1118,205.00000000000006 h100 a10,10 0 0 1 10,10 v100 a10,10 0 0 1 -10,10 h-110 a0,0 0 0 1 0,0 v-110 a10,10 0 0 1 10,-10 z" style="fill:none;fill-opacity:none;stroke-width:7;stroke:#ffffff;stroke-opacity:1;stroke-dasharray:" x="1108" y="205.00000000000006" transform="matrix(-0.000000, 1.000000, -1.000000, 0.000000, 1433.000000, -903.000000)" width="120" height="120"></path></g></g></g><g id="shape-0b951858-edbe-807a-8002-205474f53fe9"><g class="fills" id="fills-0b951858-edbe-807a-8002-205474f53fe9"><path d="M1138,225 h60 a10,10 0 0 1 10,10 v60 a10,10 0 0 1 -10,10 h-70 a0,0 0 0 1 0,0 v-70 a10,10 0 0 1 10,-10 z" x="1128" y="225" transform="matrix(-1.000000, 0.000000, 0.000000, -1.000000, 2336.000000, 530.000000)" width="80" height="80"></path></g><g id="strokes-0b951858-edbe-807a-8002-205474f53fe9" class="strokes"><g class="stroke-shape"><path d="M1138,225 h60 a10,10 0 0 1 10,10 v60 a10,10 0 0 1 -10,10 h-70 a0,0 0 0 1 0,0 v-70 a10,10 0 0 1 10,-10 z" style="fill:none;fill-opacity:none;stroke-width:7;stroke:#ffffff;stroke-opacity:1;stroke-dasharray:" x="1128" y="225" transform="matrix(-1.000000, 0.000000, 0.000000, -1.000000, 2336.000000, 530.000000)" width="80" height="80"></path></g></g></g><g id="shape-0b951858-edbe-807a-8002-205487921f4f"><g class="fills" id="fills-0b951858-edbe-807a-8002-205487921f4f"><path d="M1158,245 h20 a10,10 0 0 1 10,10 v20 a10,10 0 0 1 -10,10 h-30 a0,0 0 0 1 0,0 v-30 a10,10 0 0 1 10,-10 z" x="1148" y="245" transform="matrix(0.000000, -1.000000, 1.000000, 0.000000, 903.000000, 1433.000000)" width="40" height="40"></path></g><g id="strokes-0b951858-edbe-807a-8002-205487921f4f" class="strokes"><g class="stroke-shape"><path d="M1158,245 h20 a10,10 0 0 1 10,10 v20 a10,10 0 0 1 -10,10 h-30 a0,0 0 0 1 0,0 v-30 a10,10 0 0 1 10,-10 z" style="fill:none;fill-opacity:none;stroke-width:7;stroke:#ffffff;stroke-opacity:1;stroke-dasharray:" x="1148" y="245" transform="matrix(0.000000, -1.000000, 1.000000, 0.000000, 903.000000, 1433.000000)" width="40" height="40"></path></g></g></g></g></svg>