<svg xmlns:xlink="http://www.w3.org/1999/xlink" fill="none" width="185" xmlns="http://www.w3.org/2000/svg" style="-webkit-print-color-adjust:exact" id="screenshot-0b951858-edbe-807a-8002-2055cccf4cea" version="1.1" viewBox="1276.5 172.5 185 185" height="185"><g id="shape-0b951858-edbe-807a-8002-2055cccf4cea" style="fill:#000000" width="800px" height="800px" rx="0" ry="0"><g id="shape-0b951858-edbe-807a-8002-2055ccd44227"><g class="fills" id="fills-0b951858-edbe-807a-8002-2055ccd44227"><path fill="none" rx="0" ry="0" style="fill:none" d="M1361.500,197.500L1376.500,197.500C1380.642,197.500,1384.000,200.858,1384.000,205.000L1384.000,209.266C1384.000,212.474,1386.153,215.262,1389.117,216.492C1392.081,217.723,1395.533,217.254,1397.802,214.984L1400.819,211.967C1403.748,209.038,1408.497,209.038,1411.426,211.967L1422.032,222.573C1424.962,225.502,1424.961,230.251,1422.032,233.180L1419.016,236.197C1416.746,238.467,1416.277,241.919,1417.508,244.883C1418.738,247.847,1421.525,250.000,1424.735,250.000L1429.000,250.000C1433.142,250.000,1436.500,253.358,1436.500,257.500L1436.500,272.500C1436.500,276.642,1433.142,280.000,1429.000,280.000L1424.734,280.000C1421.525,280.000,1418.738,282.153,1417.508,285.116C1416.277,288.081,1416.746,291.533,1419.016,293.802L1422.032,296.820C1424.962,299.748,1424.962,304.497,1422.032,307.426L1411.426,318.033C1408.497,320.962,1403.748,320.962,1400.819,318.033L1397.802,315.016C1395.533,312.746,1392.081,312.277,1389.117,313.508C1386.153,314.739,1384.000,317.526,1384.000,320.734L1384.000,325.000C1384.000,329.142,1380.642,332.500,1376.500,332.500L1361.500,332.500C1357.358,332.500,1354.000,329.142,1354.000,325.000L1354.000,320.735C1354.000,317.526,1351.847,314.738,1348.883,313.508C1345.919,312.277,1342.467,312.746,1340.197,315.016L1337.180,318.033C1334.251,320.962,1329.502,320.962,1326.573,318.033L1315.967,307.426C1313.038,304.497,1313.038,299.748,1315.967,296.820L1318.984,293.802C1321.254,291.533,1321.723,288.081,1320.492,285.116C1319.262,282.153,1316.474,280.000,1313.266,280.000L1309.000,280.000C1304.858,280.000,1301.500,276.642,1301.500,272.500L1301.500,257.500C1301.500,253.358,1304.858,250.000,1309.000,250.000L1313.266,250.000C1316.474,250.000,1319.262,247.847,1320.492,244.883C1321.723,241.919,1321.254,238.467,1318.984,236.197L1315.967,233.180C1313.038,230.251,1313.038,225.502,1315.967,222.573L1326.573,211.967C1329.502,209.038,1334.251,209.038,1337.180,211.967L1340.197,214.984C1342.467,217.254,1345.919,217.723,1348.883,216.492C1351.847,215.262,1354.000,212.474,1354.000,209.266L1354.000,205.000C1354.000,200.858,1357.358,197.500,1361.500,197.500ZZ"></path></g><g id="strokes-0b951858-edbe-807a-8002-2055ccd44227" class="strokes"><g class="stroke-shape"><path rx="0" ry="0" style="fill:none;fill-opacity:none;stroke-width:7;stroke:#ffffff;stroke-opacity:1;stroke-dasharray:" d="M1361.500,197.500L1376.500,197.500C1380.642,197.500,1384.000,200.858,1384.000,205.000L1384.000,209.266C1384.000,212.474,1386.153,215.262,1389.117,216.492C1392.081,217.723,1395.533,217.254,1397.802,214.984L1400.819,211.967C1403.748,209.038,1408.497,209.038,1411.426,211.967L1422.032,222.573C1424.962,225.502,1424.961,230.251,1422.032,233.180L1419.016,236.197C1416.746,238.467,1416.277,241.919,1417.508,244.883C1418.738,247.847,1421.525,250.000,1424.735,250.000L1429.000,250.000C1433.142,250.000,1436.500,253.358,1436.500,257.500L1436.500,272.500C1436.500,276.642,1433.142,280.000,1429.000,280.000L1424.734,280.000C1421.525,280.000,1418.738,282.153,1417.508,285.116C1416.277,288.081,1416.746,291.533,1419.016,293.802L1422.032,296.820C1424.962,299.748,1424.962,304.497,1422.032,307.426L1411.426,318.033C1408.497,320.962,1403.748,320.962,1400.819,318.033L1397.802,315.016C1395.533,312.746,1392.081,312.277,1389.117,313.508C1386.153,314.739,1384.000,317.526,1384.000,320.734L1384.000,325.000C1384.000,329.142,1380.642,332.500,1376.500,332.500L1361.500,332.500C1357.358,332.500,1354.000,329.142,1354.000,325.000L1354.000,320.735C1354.000,317.526,1351.847,314.738,1348.883,313.508C1345.919,312.277,1342.467,312.746,1340.197,315.016L1337.180,318.033C1334.251,320.962,1329.502,320.962,1326.573,318.033L1315.967,307.426C1313.038,304.497,1313.038,299.748,1315.967,296.820L1318.984,293.802C1321.254,291.533,1321.723,288.081,1320.492,285.116C1319.262,282.153,1316.474,280.000,1313.266,280.000L1309.000,280.000C1304.858,280.000,1301.500,276.642,1301.500,272.500L1301.500,257.500C1301.500,253.358,1304.858,250.000,1309.000,250.000L1313.266,250.000C1316.474,250.000,1319.262,247.847,1320.492,244.883C1321.723,241.919,1321.254,238.467,1318.984,236.197L1315.967,233.180C1313.038,230.251,1313.038,225.502,1315.967,222.573L1326.573,211.967C1329.502,209.038,1334.251,209.038,1337.180,211.967L1340.197,214.984C1342.467,217.254,1345.919,217.723,1348.883,216.492C1351.847,215.262,1354.000,212.474,1354.000,209.266L1354.000,205.000C1354.000,200.858,1357.358,197.500,1361.500,197.500ZZ"></path></g></g></g><g id="shape-0b951858-edbe-807a-8002-2055ccd50997"><g class="fills" id="fills-0b951858-edbe-807a-8002-2055ccd50997"><path fill="none" rx="0" ry="0" style="fill:none" d="M1384.000,265.000C1384.000,273.285,1377.285,280.000,1369.000,280.000C1360.715,280.000,1354.000,273.285,1354.000,265.000C1354.000,256.716,1360.715,250.000,1369.000,250.000C1377.285,250.000,1384.000,256.716,1384.000,265.000ZZ"></path></g><g id="strokes-0b951858-edbe-807a-8002-2055ccd50997" class="strokes"><g class="stroke-shape"><path rx="0" ry="0" style="fill:none;fill-opacity:none;stroke-width:7;stroke:#ffffff;stroke-opacity:1;stroke-dasharray:" d="M1384.000,265.000C1384.000,273.285,1377.285,280.000,1369.000,280.000C1360.715,280.000,1354.000,273.285,1354.000,265.000C1354.000,256.716,1360.715,250.000,1369.000,250.000C1377.285,250.000,1384.000,256.716,1384.000,265.000ZZ"></path></g></g></g></g></svg>